<mxfile host="app.diagrams.net" modified="2024-06-12T11:51:24.281Z" agent="Mozilla/5.0 (Windows NT 10.0; Win64; x64) AppleWebKit/537.36 (KHTML, like Gecko) Chrome/125.0.0.0 Safari/537.36" version="24.5.3" etag="OBDf0l6v6U0_IfDbsG9U" type="github">
  <diagram name="Страница — 1" id="DGujbsJ1XrXz5JA250Hu">
    <mxGraphModel>
      <root>
        <mxCell id="0" />
        <mxCell id="1" parent="0" />
      </root>
    </mxGraphModel>
  </diagram>
</mxfile>
